<?xml version="1.0" encoding="utf-8"?>
<!-- Generator: Adobe Illustrator 21.0.0, SVG Export Plug-In . SVG Version: 6.00 Build 0)  -->
<svg version="1.1" id="Layer_1" xmlns="http://www.w3.org/2000/svg" xmlns:xlink="http://www.w3.org/1999/xlink" x="0px" y="0px"
	 viewBox="0 0 11.3 9.9" style="enable-background:new 0 0 11.3 9.9;" xml:space="preserve">
<style type="text/css">
	.st0{fill:none;stroke:#010101;stroke-width:0.5;stroke-miterlimit:10;}
</style>
<path class="st0" d="M1.6,5L1.6,5c0-2.2,1.8-4.1,4-4.1h0c2.2,0,4,1.8,4,4v0c0,2.2-1.8,4-4,4h0C3.4,9,1.6,7.2,1.6,5z"/>
<g>
	<path class="st0" d="M2.2,7.3c1-0.4,2.1-0.6,3.4-0.6C6.9,6.7,8.1,7,9,7.4"/>
	<path class="st0" d="M9.1,2.6C8.1,3,6.9,3.2,5.7,3.2c-1.3,0-2.5-0.2-3.4-0.6"/>
</g>
<line class="st0" x1="9.7" y1="5" x2="1.6" y2="5"/>
<ellipse class="st0" cx="5.6" cy="5" rx="1.3" ry="4"/>
</svg>
